<svg xmlns="http://www.w3.org/2000/svg" width="1440" height="1764" viewBox="0 0 1440 1764">
  <defs>
    <style>
      .cls-1 {
        fill: #e5e5e5;
      }

      .cls-2 {
        fill: #b1e7ff;
      }

      .cls-3 {
        fill: #fff;
      }

      .cls-4 {
        fill: #ff8989;
      }
    </style>
  </defs>
  <g id="Group_87" data-name="Group 87" transform="translate(-240 -8052)">
    <rect id="Rectangle_59" data-name="Rectangle 59" class="cls-1" width="1440" height="882" transform="translate(240 8052)"/>
    <rect id="Rectangle_60" data-name="Rectangle 60" class="cls-2" width="100" height="100" transform="translate(910 8092)"/>
    <g id="Group_76" data-name="Group 76" transform="translate(-48)">
      <rect id="Rectangle_36" data-name="Rectangle 36" class="cls-3" width="75" height="30" transform="translate(971 8222)"/>
      <rect id="Rectangle_37" data-name="Rectangle 37" class="cls-3" width="75" height="30" transform="translate(1096 8222)"/>
      <rect id="Rectangle_38" data-name="Rectangle 38" class="cls-3" width="75" height="30" transform="translate(721 8222)"/>
      <rect id="Rectangle_39" data-name="Rectangle 39" class="cls-3" width="75" height="30" transform="translate(846 8222)"/>
      <rect id="Rectangle_40" data-name="Rectangle 40" class="cls-3" width="75" height="30" transform="translate(1221 8222)"/>
      <rect id="Rectangle_41" data-name="Rectangle 41" class="cls-3" width="75" height="30" transform="translate(596 8222)"/>
      <rect id="Rectangle_42" data-name="Rectangle 42" class="cls-3" width="75" height="30" transform="translate(1346 8222)"/>
      <rect id="Rectangle_61" data-name="Rectangle 61" class="cls-3" width="75" height="30" transform="translate(971 8282)"/>
    </g>
    <path id="Path_12" data-name="Path 12" class="cls-4" d="M0,0H100V50H0Z" transform="translate(910 8362)"/>
    <rect id="Rectangle_67" data-name="Rectangle 67" class="cls-3" width="25" height="25" transform="translate(1348 8087)"/>
    <rect id="Rectangle_68" data-name="Rectangle 68" class="cls-3" width="25" height="25" transform="translate(1298 8087)"/>
    <rect id="Rectangle_69" data-name="Rectangle 69" class="cls-1" width="1440" height="882" transform="translate(240 8934)"/>
    <g id="Group_83" data-name="Group 83" transform="translate(0 8)">
      <g id="Group_77" data-name="Group 77" transform="translate(-28 20)">
        <rect id="Rectangle_62" data-name="Rectangle 62" class="cls-2" width="100" height="100" transform="translate(938 8457)"/>
        <rect id="Rectangle_63" data-name="Rectangle 63" class="cls-2" width="100" height="100" transform="translate(1123 8457)"/>
        <rect id="Rectangle_64" data-name="Rectangle 64" class="cls-2" width="100" height="100" transform="translate(1308 8457)"/>
        <rect id="Rectangle_65" data-name="Rectangle 65" class="cls-2" width="100" height="100" transform="translate(568 8457)"/>
        <rect id="Rectangle_66" data-name="Rectangle 66" class="cls-2" width="100" height="100" transform="translate(753 8457)"/>
      </g>
      <g id="Group_78" data-name="Group 78" transform="translate(-28 170)">
        <rect id="Rectangle_62-2" data-name="Rectangle 62" class="cls-2" width="100" height="100" transform="translate(938 8457)"/>
        <rect id="Rectangle_63-2" data-name="Rectangle 63" class="cls-2" width="100" height="100" transform="translate(1123 8457)"/>
        <rect id="Rectangle_64-2" data-name="Rectangle 64" class="cls-2" width="100" height="100" transform="translate(1308 8457)"/>
        <rect id="Rectangle_65-2" data-name="Rectangle 65" class="cls-2" width="100" height="100" transform="translate(568 8457)"/>
        <rect id="Rectangle_66-2" data-name="Rectangle 66" class="cls-2" width="100" height="100" transform="translate(753 8457)"/>
      </g>
      <g id="Group_79" data-name="Group 79" transform="translate(-28 320)">
        <rect id="Rectangle_62-3" data-name="Rectangle 62" class="cls-2" width="100" height="100" transform="translate(938 8457)"/>
        <rect id="Rectangle_63-3" data-name="Rectangle 63" class="cls-2" width="100" height="100" transform="translate(1123 8457)"/>
        <rect id="Rectangle_64-3" data-name="Rectangle 64" class="cls-2" width="100" height="100" transform="translate(1308 8457)"/>
        <rect id="Rectangle_65-3" data-name="Rectangle 65" class="cls-2" width="100" height="100" transform="translate(568 8457)"/>
        <rect id="Rectangle_66-3" data-name="Rectangle 66" class="cls-2" width="100" height="100" transform="translate(753 8457)"/>
      </g>
      <g id="Group_80" data-name="Group 80" transform="translate(-28 470)">
        <rect id="Rectangle_62-4" data-name="Rectangle 62" class="cls-2" width="100" height="100" transform="translate(938 8457)"/>
        <rect id="Rectangle_63-4" data-name="Rectangle 63" class="cls-2" width="100" height="100" transform="translate(1123 8457)"/>
        <rect id="Rectangle_64-4" data-name="Rectangle 64" class="cls-2" width="100" height="100" transform="translate(1308 8457)"/>
        <rect id="Rectangle_65-4" data-name="Rectangle 65" class="cls-2" width="100" height="100" transform="translate(568 8457)"/>
        <rect id="Rectangle_66-4" data-name="Rectangle 66" class="cls-2" width="100" height="100" transform="translate(753 8457)"/>
      </g>
      <g id="Group_81" data-name="Group 81" transform="translate(-28 620)">
        <rect id="Rectangle_62-5" data-name="Rectangle 62" class="cls-2" width="100" height="100" transform="translate(938 8457)"/>
        <rect id="Rectangle_63-5" data-name="Rectangle 63" class="cls-2" width="100" height="100" transform="translate(1123 8457)"/>
        <rect id="Rectangle_64-5" data-name="Rectangle 64" class="cls-2" width="100" height="100" transform="translate(1308 8457)"/>
        <rect id="Rectangle_65-5" data-name="Rectangle 65" class="cls-2" width="100" height="100" transform="translate(568 8457)"/>
        <rect id="Rectangle_66-5" data-name="Rectangle 66" class="cls-2" width="100" height="100" transform="translate(753 8457)"/>
      </g>
      <g id="Group_82" data-name="Group 82" transform="translate(-28 770)">
        <rect id="Rectangle_62-6" data-name="Rectangle 62" class="cls-2" width="100" height="100" transform="translate(938 8457)"/>
        <rect id="Rectangle_63-6" data-name="Rectangle 63" class="cls-2" width="100" height="100" transform="translate(1123 8457)"/>
        <rect id="Rectangle_64-6" data-name="Rectangle 64" class="cls-2" width="100" height="100" transform="translate(1308 8457)"/>
        <rect id="Rectangle_65-6" data-name="Rectangle 65" class="cls-2" width="100" height="100" transform="translate(568 8457)"/>
        <rect id="Rectangle_66-6" data-name="Rectangle 66" class="cls-2" width="100" height="100" transform="translate(753 8457)"/>
      </g>
    </g>
    <g id="Group_84" data-name="Group 84" transform="translate(-50 29)">
      <rect id="Rectangle_70" data-name="Rectangle 70" class="cls-3" width="25" height="25" transform="translate(973 9537)"/>
      <rect id="Rectangle_71" data-name="Rectangle 71" class="cls-3" width="25" height="25" transform="translate(923 9537)"/>
      <rect id="Rectangle_72" data-name="Rectangle 72" class="cls-3" width="25" height="25" transform="translate(1023 9537)"/>
      <rect id="Rectangle_73" data-name="Rectangle 73" class="cls-3" width="25" height="25" transform="translate(1073 9537)"/>
    </g>
  </g>
</svg>
