<svg xmlns="http://www.w3.org/2000/svg" width="1440" height="3528" viewBox="0 0 1440 3528">
  <defs>
    <style>
      .cls-1 {
        fill: #b1e7ff;
      }

      .cls-2 {
        fill: #fff;
      }

      .cls-3 {
        fill: #ff8989;
      }

      .cls-4 {
        fill: #e5e5e5;
      }
    </style>
  </defs>
  <g id="Group_85" data-name="Group 85" transform="translate(-240 -4412)">
    <g id="Group_69" data-name="Group 69">
      <rect id="Rectangle_31" data-name="Rectangle 31" class="cls-1" width="1440" height="882" transform="translate(240 4412)"/>
      <g id="Group_68" data-name="Group 68">
        <g id="Group_67" data-name="Group 67" transform="translate(40)">
          <rect id="Rectangle_36" data-name="Rectangle 36" class="cls-2" width="75" height="30" transform="translate(883 4442)"/>
          <rect id="Rectangle_37" data-name="Rectangle 37" class="cls-2" width="75" height="30" transform="translate(988 4442)"/>
          <rect id="Rectangle_38" data-name="Rectangle 38" class="cls-2" width="75" height="30" transform="translate(673 4442)"/>
          <rect id="Rectangle_39" data-name="Rectangle 39" class="cls-2" width="75" height="30" transform="translate(778 4442)"/>
          <rect id="Rectangle_40" data-name="Rectangle 40" class="cls-2" width="75" height="30" transform="translate(1093 4442)"/>
          <rect id="Rectangle_41" data-name="Rectangle 41" class="cls-2" width="75" height="30" transform="translate(568 4442)"/>
          <rect id="Rectangle_42" data-name="Rectangle 42" class="cls-2" width="75" height="30" transform="translate(1198 4442)"/>
        </g>
      </g>
      <rect id="Rectangle_43" data-name="Rectangle 43" class="cls-2" width="75" height="30" transform="translate(278 4442)"/>
      <rect id="Rectangle_44" data-name="Rectangle 44" class="cls-2" width="75" height="30" transform="translate(1463 4442)"/>
      <rect id="Rectangle_45" data-name="Rectangle 45" class="cls-2" width="75" height="30" transform="translate(1568 4442)"/>
      <path id="Path_10" data-name="Path 10" class="cls-3" d="M0,0H200V50H0Z" transform="translate(860 4607)"/>
      <rect id="Rectangle_47" data-name="Rectangle 47" class="cls-2" width="200" height="50" transform="translate(740 4687)"/>
      <rect id="Rectangle_48" data-name="Rectangle 48" class="cls-2" width="200" height="50" transform="translate(980 4687)"/>
      <rect id="Rectangle_49" data-name="Rectangle 49" class="cls-2" width="75" height="30" transform="translate(923 4762)"/>
      <rect id="Rectangle_50" data-name="Rectangle 50" class="cls-2" width="75" height="30" transform="translate(278 4802)"/>
      <rect id="Rectangle_51" data-name="Rectangle 51" class="cls-2" width="75" height="30" transform="translate(278 4842)"/>
      <rect id="Rectangle_52" data-name="Rectangle 52" class="cls-2" width="75" height="30" transform="translate(278 4882)"/>
      <rect id="Rectangle_53" data-name="Rectangle 53" class="cls-2" width="75" height="30" transform="translate(278 4922)"/>
      <path id="Path_11" data-name="Path 11" class="cls-3" d="M0,0H650V25H0Z" transform="translate(635 5197)"/>
      <rect id="Rectangle_54" data-name="Rectangle 54" class="cls-3" width="25" height="25" transform="translate(944 5157)"/>
      <rect id="Rectangle_55" data-name="Rectangle 55" class="cls-3" width="25" height="25" transform="translate(979 5157)"/>
      <rect id="Rectangle_56" data-name="Rectangle 56" class="cls-3" width="25" height="25" transform="translate(909 5157)"/>
      <rect id="Rectangle_57" data-name="Rectangle 57" class="cls-2" width="25" height="25" transform="translate(944 5249)"/>
    </g>
    <g id="Group_70" data-name="Group 70" transform="translate(0 882)">
      <rect id="Rectangle_31-2" data-name="Rectangle 31" class="cls-1" width="1440" height="882" transform="translate(240 4412)"/>
      <rect id="Rectangle_43-2" data-name="Rectangle 43" class="cls-2" width="75" height="30" transform="translate(278 4442)"/>
      <rect id="Rectangle_45-2" data-name="Rectangle 45" class="cls-2" width="25" height="25" transform="translate(1617 4442)"/>
      <path id="Path_10-2" data-name="Path 10" class="cls-3" d="M0,0H400V50H0Z" transform="translate(760 4607)"/>
      <rect id="Rectangle_47-2" data-name="Rectangle 47" class="cls-2" width="200" height="50" transform="translate(860 4687)"/>
      <rect id="Rectangle_50-2" data-name="Rectangle 50" class="cls-2" width="75" height="30" transform="translate(278 4802)"/>
      <rect id="Rectangle_51-2" data-name="Rectangle 51" class="cls-2" width="75" height="30" transform="translate(278 4842)"/>
      <rect id="Rectangle_52-2" data-name="Rectangle 52" class="cls-2" width="75" height="30" transform="translate(278 4882)"/>
      <rect id="Rectangle_53-2" data-name="Rectangle 53" class="cls-2" width="75" height="30" transform="translate(278 4922)"/>
      <rect id="Rectangle_57-2" data-name="Rectangle 57" class="cls-2" width="25" height="25" transform="translate(944 5249)"/>
    </g>
    <g id="Group_73" data-name="Group 73" transform="translate(0 1764)">
      <rect id="Rectangle_31-3" data-name="Rectangle 31" class="cls-1" width="1440" height="882" transform="translate(240 4412)"/>
      <rect id="Rectangle_43-3" data-name="Rectangle 43" class="cls-2" width="75" height="30" transform="translate(278 4442)"/>
      <rect id="Rectangle_45-3" data-name="Rectangle 45" class="cls-2" width="25" height="25" transform="translate(1617 4442)"/>
      <path id="Path_10-3" data-name="Path 10" class="cls-3" d="M0,0H400V50H0Z" transform="translate(760 4607)"/>
      <rect id="Rectangle_47-3" data-name="Rectangle 47" class="cls-2" width="200" height="50" transform="translate(860 4687)"/>
      <rect id="Rectangle_50-3" data-name="Rectangle 50" class="cls-2" width="75" height="30" transform="translate(278 4802)"/>
      <rect id="Rectangle_51-3" data-name="Rectangle 51" class="cls-2" width="75" height="30" transform="translate(278 4842)"/>
      <rect id="Rectangle_52-3" data-name="Rectangle 52" class="cls-2" width="75" height="30" transform="translate(278 4882)"/>
      <rect id="Rectangle_53-3" data-name="Rectangle 53" class="cls-2" width="75" height="30" transform="translate(278 4922)"/>
      <rect id="Rectangle_57-3" data-name="Rectangle 57" class="cls-2" width="25" height="25" transform="translate(944 5249)"/>
    </g>
    <g id="Group_74" data-name="Group 74" transform="translate(0 2646)">
      <rect id="Rectangle_31-4" data-name="Rectangle 31" class="cls-1" width="1440" height="882" transform="translate(240 4412)"/>
      <rect id="Rectangle_43-4" data-name="Rectangle 43" class="cls-2" width="75" height="30" transform="translate(278 4442)"/>
      <rect id="Rectangle_45-4" data-name="Rectangle 45" class="cls-2" width="25" height="25" transform="translate(1617 4442)"/>
      <path id="Path_10-4" data-name="Path 10" class="cls-3" d="M0,0H400V50H0Z" transform="translate(760 4607)"/>
      <rect id="Rectangle_47-4" data-name="Rectangle 47" class="cls-2" width="200" height="50" transform="translate(860 4687)"/>
      <rect id="Rectangle_50-4" data-name="Rectangle 50" class="cls-2" width="75" height="30" transform="translate(278 4802)"/>
      <rect id="Rectangle_51-4" data-name="Rectangle 51" class="cls-2" width="75" height="30" transform="translate(278 4842)"/>
      <rect id="Rectangle_52-4" data-name="Rectangle 52" class="cls-2" width="75" height="30" transform="translate(278 4882)"/>
      <rect id="Rectangle_53-4" data-name="Rectangle 53" class="cls-2" width="75" height="30" transform="translate(278 4922)"/>
    </g>
    <rect id="Rectangle_58" data-name="Rectangle 58" class="cls-4" width="1440" height="175" transform="translate(240 7765)"/>
    <g id="Group_75" data-name="Group 75" transform="translate(0 3378)">
      <g id="Group_67-2" data-name="Group 67" transform="translate(40)">
        <rect id="Rectangle_36-2" data-name="Rectangle 36" class="cls-2" width="75" height="30" transform="translate(883 4442)"/>
        <rect id="Rectangle_37-2" data-name="Rectangle 37" class="cls-2" width="75" height="30" transform="translate(988 4442)"/>
        <rect id="Rectangle_38-2" data-name="Rectangle 38" class="cls-2" width="75" height="30" transform="translate(673 4442)"/>
        <rect id="Rectangle_39-2" data-name="Rectangle 39" class="cls-2" width="75" height="30" transform="translate(778 4442)"/>
        <rect id="Rectangle_40-2" data-name="Rectangle 40" class="cls-2" width="75" height="30" transform="translate(1093 4442)"/>
        <rect id="Rectangle_41-2" data-name="Rectangle 41" class="cls-2" width="75" height="30" transform="translate(568 4442)"/>
        <rect id="Rectangle_42-2" data-name="Rectangle 42" class="cls-2" width="75" height="30" transform="translate(1198 4442)"/>
      </g>
    </g>
  </g>
</svg>
